<svg width="32" height="32" viewBox="0 0 32 32" fill="none" xmlns="http://www.w3.org/2000/svg">
<rect x="0.5" y="0.5" width="31" height="31" rx="7.5" fill="white"/>
<rect x="0.5" y="0.5" width="31" height="31" rx="7.5" stroke="#EBEBEB"/>
<path d="M22.7879 23.3556L20.2268 20.7939L20.5099 20.5111C21.7157 19.3066 22.3797 17.7048 22.3797 16.0006V15.6006H25.9993V16.0006C25.9993 18.6724 24.9592 21.1839 23.0709 23.0728L22.7879 23.3556ZM21.3507 20.7865L22.7819 22.2181C24.254 20.6151 25.0987 18.5754 25.191 16.4005H23.1687C23.0796 18.0354 22.4441 19.568 21.3507 20.7865ZM13.1899 10.2601L11.8056 6.9179L12.1732 6.764C13.384 6.257 14.6706 6 15.9975 6H16.3975V9.6208L15.9978 9.621C15.1609 9.62068 14.3323 9.78581 13.5595 10.1069L13.1899 10.2601ZM12.8529 7.3562L13.6269 9.2247C14.2619 9.00156 14.9253 8.86942 15.5974 8.8322V6.8084C14.6525 6.8489 13.7326 7.0323 12.8529 7.3562Z" fill="#02AB6C"/>
<path d="M22.7879 23.3556L20.2268 20.7939L20.5099 20.5111C21.7157 19.3066 22.3797 17.7048 22.3797 16.0006V15.6006H25.9993V16.0006C25.9993 18.6724 24.9592 21.1839 23.0709 23.0728L22.7879 23.3556ZM21.3507 20.7865L22.7819 22.2181C24.254 20.6151 25.0987 18.5754 25.191 16.4005H23.1687C23.0796 18.0354 22.4441 19.568 21.3507 20.7865ZM13.1899 10.2601L11.8056 6.9179L12.1732 6.764C13.384 6.257 14.6706 6 15.9975 6H16.3975V9.6208L15.9978 9.621C15.1609 9.62068 14.3323 9.78581 13.5595 10.1069L13.1899 10.2601ZM12.8529 7.3562L13.6269 9.2247C14.2619 9.00156 14.9253 8.86942 15.5974 8.8322V6.8084C14.6525 6.8489 13.7326 7.0323 12.8529 7.3562Z" fill="#02AB6C"/>
<path d="M22.0579 14.0001H25.7957C24.998 10.0875 21.9104 6.99781 17.997 6.20111V9.94251C19.9098 10.5749 21.4247 12.0881 22.0579 14.0001Z" fill="#02AB6C"/>
<path d="M22.0579 14.0001H25.7957C24.998 10.0875 21.9104 6.99781 17.997 6.20111V9.94251C19.9098 10.5749 21.4247 12.0881 22.0579 14.0001Z" fill="#02AB6C"/>
<path d="M18.8691 21.6985C17.99 22.1428 17.0131 22.3795 15.9996 22.3795C12.4818 22.3795 9.61988 19.5174 9.61988 15.9994C9.61988 14.1045 10.4517 12.3594 11.8354 11.17L10.4037 7.71344C7.67938 9.54464 6.00058 12.6215 6.00058 16.0016C6.00058 21.5148 10.4852 25.9999 15.9978 25.9999C17.991 25.9999 19.8944 25.4218 21.5167 24.3466L18.8691 21.6985Z" fill="#02AB6C"/>
</svg>
