<svg width="117" height="26" viewBox="0 0 117 26" fill="none" xmlns="http://www.w3.org/2000/svg">
<g clip-path="url(#clip0_1_69)">
<path d="M1 19.8031V0.808291H3.05147V17.8093H11.9741V19.8031H1ZM19 20.342C14.9959 20.342 12.3512 17.4321 12.3512 13.0135C12.3512 8.56788 14.9959 5.65803 19 5.65803C23.0288 5.65803 25.6734 8.56788 25.6734 13.0135C25.6734 17.4321 23.0288 20.342 19 20.342ZM19 18.4829C21.8918 18.4829 23.7703 16.3275 23.7703 13.0135C23.7703 9.69948 21.8918 7.54404 19 7.54404C16.1081 7.54404 14.2297 9.69948 14.2297 13.0135C14.2297 16.3275 16.1081 18.4829 19 18.4829ZM34.3397 5.65803C37.2069 5.65803 38.9617 7.65181 38.9617 11.0197V19.8031H37.0586V11.2352C37.0586 8.91813 35.798 7.43627 33.8207 7.43627C31.3243 7.43627 29.52 9.34922 29.52 12.1244V19.8031H27.6416V6.19689H29.347L29.52 8.21762H29.5448C30.6076 6.57409 32.1647 5.65803 34.3397 5.65803ZM46.7163 26C43.775 26 41.0315 24.5451 39.8202 22.3627L41.2787 21.0155C42.2673 22.9016 44.393 24.1409 46.6669 24.1409C49.7564 24.1409 51.8079 22.0124 51.8079 18.7254V17.2166H51.7832C50.7945 18.914 48.8172 19.9648 47.0623 19.9648C43.3796 19.9648 40.8338 17.0819 40.8338 12.9057C40.8338 8.62176 43.3796 5.71192 47.0623 5.71192C48.8666 5.71192 50.7945 6.81658 51.8079 8.40622H51.8326L52.0303 6.19689H53.7111V18.7254C53.7111 23.144 50.9181 26 46.7163 26ZM47.3095 18.1057C50.0036 18.1057 51.882 15.8694 51.882 12.9057C51.882 9.86114 50.0036 7.54404 47.3095 7.54404C44.5907 7.54404 42.7122 9.72643 42.7122 12.9057C42.7122 15.9772 44.5907 18.1057 47.3095 18.1057ZM61.3376 20.342C58.2233 20.342 55.6528 18.5907 55.4303 15.6808L57.2841 15.2767C57.4324 17.1627 59.1131 18.4829 61.3376 18.4829C63.2902 18.4829 64.7979 17.486 64.7979 16.085C64.7979 15.0342 63.8834 14.3876 61.7825 13.9295L59.8052 13.4984C57.2099 12.9057 56.0977 11.7741 56.0977 9.78031C56.1224 7.40933 58.0503 5.65803 60.7197 5.65803C63.3396 5.65803 65.2922 7.19378 65.7618 9.40311L63.9575 9.94197C63.7845 8.51399 62.4745 7.46321 60.695 7.46321C59.1131 7.46321 57.9514 8.51399 57.9267 9.67254C57.9267 10.6694 58.6682 11.2352 60.3984 11.6394L62.4251 12.0705C65.3664 12.744 66.6269 13.8756 66.6269 15.8964C66.6269 18.456 64.353 20.342 61.3376 20.342ZM69.4981 3.55648C68.6577 3.55648 68.114 2.96373 68.114 2.04767C68.114 1.15855 68.6577 0.565801 69.4981 0.565801C70.3137 0.565801 70.9069 1.15855 70.9069 2.04767C70.9069 2.96373 70.3137 3.55648 69.4981 3.55648ZM68.5341 19.8031V6.19689H70.4126V19.8031H68.5341ZM78.553 26C75.6118 26 72.8682 24.5451 71.6571 22.3627L73.1154 21.0155C74.1041 22.9016 76.2297 24.1409 78.5036 24.1409C81.5932 24.1409 83.6446 22.0124 83.6446 18.7254V17.2166H83.6199C82.6312 18.914 80.6539 19.9648 78.8991 19.9648C75.2163 19.9648 72.6705 17.0819 72.6705 12.9057C72.6705 8.62176 75.2163 5.71192 78.8991 5.71192C80.7034 5.71192 82.6312 6.81658 83.6446 8.40622H83.6693L83.8671 6.19689H85.5478V18.7254C85.5478 23.144 82.7548 26 78.553 26ZM79.1462 18.1057C81.8403 18.1057 83.7188 15.8694 83.7188 12.9057C83.7188 9.86114 81.8403 7.54404 79.1462 7.54404C76.4274 7.54404 74.549 9.72643 74.549 12.9057C74.549 15.9772 76.4274 18.1057 79.1462 18.1057ZM88.0088 19.8031V0H89.8872V8.21762H89.912C90.9748 6.57409 92.5319 5.65803 94.7069 5.65803C97.5741 5.65803 99.3289 7.65181 99.3289 11.0197V19.8031H97.4258V11.2352C97.4258 8.91813 96.1652 7.43627 94.1879 7.43627C91.6915 7.43627 89.8872 9.34922 89.8872 12.1244V19.8031H88.0088ZM106.625 20.342C104.277 20.342 102.695 18.6176 102.695 16.1389V7.8943H99.9517V6.19689H102.695V2.15544L104.574 1.67047V6.19689H110.16V7.8943H104.574V15.9233C104.574 17.4591 105.439 18.5637 106.798 18.5637C108.059 18.5637 109.22 17.5668 109.468 15.8155L111 16.5161C110.654 18.887 108.751 20.342 106.625 20.342Z" fill="white"/>
</g>
<defs>
<clipPath id="clip0_1_69">
<rect width="116" height="25" fill="white" transform="translate(0.5 0.5)"/>
</clipPath>
</defs>
</svg>
