<svg width="17" height="18" viewBox="0 0 17 18" fill="none" xmlns="http://www.w3.org/2000/svg">
<path d="M8.14581 12.5417C9.03123 12.5417 9.78395 12.2317 10.404 11.6116C11.024 10.9916 11.3338 10.2391 11.3333 9.35418V6.16668H8.14581C7.2604 6.16668 6.50767 6.47669 5.88765 7.09672C5.26762 7.71675 4.95784 8.46923 4.95831 9.35418C4.95831 9.66112 4.99963 9.95626 5.08227 10.2396C5.16491 10.5229 5.28887 10.7945 5.45415 11.0542L5.17081 11.3375C5.04095 11.4674 4.97602 11.6327 4.97602 11.8333C4.97602 12.034 5.04095 12.1993 5.17081 12.3292C5.30067 12.459 5.46595 12.524 5.66665 12.524C5.86734 12.524 6.03262 12.459 6.16248 12.3292L6.44581 12.0458C6.70554 12.2111 6.97706 12.3351 7.2604 12.4177C7.54373 12.5004 7.83887 12.5417 8.14581 12.5417ZM8.14581 11.125C8.03956 11.125 7.93331 11.1132 7.82706 11.0896C7.72081 11.066 7.61456 11.0365 7.50831 11.0011L8.99581 9.49584C9.12567 9.36598 9.19061 9.20071 9.19061 9.00001C9.19061 8.79932 9.12567 8.63404 8.99581 8.50418C8.86595 8.37432 8.70067 8.30939 8.49998 8.30939C8.29929 8.30939 8.13401 8.37432 8.00415 8.50418L6.49894 9.99168C6.46352 9.88543 6.43401 9.77918 6.4104 9.67293C6.38679 9.56668 6.37498 9.46043 6.37498 9.35418C6.37498 8.85834 6.54616 8.43925 6.88852 8.09689C7.23088 7.75452 7.64998 7.58334 8.14581 7.58334H9.91665V9.35418C9.91665 9.85001 9.74547 10.2691 9.4031 10.6115C9.06074 10.9538 8.64165 11.125 8.14581 11.125ZM8.49998 16.7917L6.05623 14.8792L2.99269 14.5073L2.62081 11.4438L0.708313 9.00001L2.62081 6.55626L2.99269 3.49272L6.05623 3.12084L8.49998 1.20834L10.9437 3.12084L14.0073 3.49272L14.3791 6.55626L16.2916 9.00001L14.3791 11.4438L14.0073 14.5073L10.9437 14.8792L8.49998 16.7917ZM8.49998 14.9854L10.3771 13.5333L12.75 13.2323L13.0333 10.8771L14.4854 9.00001L13.0333 7.12293L12.7323 4.76772L10.3771 4.46668L8.49998 3.01459L6.6229 4.46668L4.24998 4.76772L3.96665 7.12293L2.51456 9.00001L3.96665 10.8771L4.26769 13.25L6.6229 13.5333L8.49998 14.9854Z" fill="white"/>
</svg>
