<svg width="26" height="26" viewBox="0 0 26 26" fill="none" xmlns="http://www.w3.org/2000/svg">
<path fill-rule="evenodd" clip-rule="evenodd" d="M12.0001 4.00006C12.4793 4.00258 12.9431 4.16989 13.3136 4.47389C13.6841 4.7779 13.9387 5.2001 14.0348 5.66962C14.812 5.88784 15.5381 6.22245 16.192 6.65612C16.9665 7.16599 16.1969 8.32568 15.4258 7.81165C14.764 7.36929 14.0231 7.0588 13.2436 6.8972C12.8626 6.82654 12.652 6.46353 12.6901 6.07697C12.7289 5.68209 12.3957 5.38005 12.0001 5.38005C11.6045 5.38005 11.2741 5.68071 11.3046 6.09013C11.333 6.47808 11.1182 6.82446 10.7511 6.89582C7.91557 7.47635 5.76384 9.99663 5.76384 13.006V16.8308C5.76384 16.9385 5.73869 17.0448 5.69041 17.1411L4.45244 19.6212C4.20997 20.1068 4.52865 20.6216 5.07247 20.6222H18.925C19.4702 20.6236 19.7909 20.1082 19.5471 19.6212L18.3043 17.1411C18.256 17.0448 18.2308 16.9385 18.2308 16.8308V13.006C18.2311 11.7847 17.8695 10.5907 17.1917 9.57474C16.679 8.80369 17.8373 8.03611 18.3472 8.80854C19.1746 10.0521 19.6162 11.5124 19.6164 13.006V16.6673L20.7871 19.0019C21.4647 20.359 20.4401 22.0099 18.9236 22.0078H15.3905C15.0677 23.5845 13.6655 24.7802 11.9973 24.7802C10.3292 24.7802 8.92701 23.5845 8.60418 22.0078H5.06969C3.556 22.0057 2.53695 20.3562 3.21309 19.0012L4.37831 16.6673V13.006C4.37831 9.51932 6.74619 6.56329 9.9613 5.66547C10.0594 5.19655 10.3153 4.77543 10.6863 4.47236C11.0573 4.16929 11.521 4.00259 12.0001 4.00006ZM13.9495 22.0078H10.0451C10.1854 22.4136 10.4489 22.7655 10.7989 23.0141C11.149 23.2628 11.568 23.3959 11.9973 23.3947C12.4267 23.3959 12.8457 23.2628 13.1957 23.0141C13.5458 22.7655 13.8093 22.4136 13.9495 22.0078Z" fill="white"/>
<path fill-rule="evenodd" clip-rule="evenodd" d="M12.0001 4.00006C12.4793 4.00258 12.9431 4.16989 13.3136 4.47389C13.6841 4.7779 13.9387 5.2001 14.0348 5.66962C14.812 5.88784 15.5381 6.22245 16.192 6.65612C16.9665 7.16599 16.1969 8.32568 15.4258 7.81165C14.764 7.36929 14.0231 7.0588 13.2436 6.8972C12.8626 6.82654 12.652 6.46353 12.6901 6.07697C12.7289 5.68209 12.3957 5.38005 12.0001 5.38005C11.6045 5.38005 11.2741 5.68071 11.3046 6.09013C11.333 6.47808 11.1182 6.82446 10.7511 6.89582C7.91557 7.47635 5.76384 9.99663 5.76384 13.006V16.8308C5.76384 16.9385 5.73869 17.0448 5.69041 17.1411L4.45244 19.6212C4.20997 20.1068 4.52865 20.6216 5.07247 20.6222H18.925C19.4702 20.6236 19.7909 20.1082 19.5471 19.6212L18.3043 17.1411C18.256 17.0448 18.2308 16.9385 18.2308 16.8308V13.006C18.2311 11.7847 17.8695 10.5907 17.1917 9.57474C16.679 8.80369 17.8373 8.03611 18.3472 8.80854C19.1746 10.0521 19.6162 11.5124 19.6164 13.006V16.6673L20.7871 19.0019C21.4647 20.359 20.4401 22.0099 18.9236 22.0078H15.3905C15.0677 23.5845 13.6655 24.7802 11.9973 24.7802C10.3292 24.7802 8.92701 23.5845 8.60418 22.0078H5.06969C3.556 22.0057 2.53695 20.3562 3.21309 19.0012L4.37831 16.6673V13.006C4.37831 9.51932 6.74619 6.56329 9.9613 5.66547C10.0594 5.19655 10.3153 4.77543 10.6863 4.47236C11.0573 4.16929 11.521 4.00259 12.0001 4.00006ZM13.9495 22.0078H10.0451C10.1854 22.4136 10.4489 22.7655 10.7989 23.0141C11.149 23.2628 11.568 23.3959 11.9973 23.3947C12.4267 23.3959 12.8457 23.2628 13.1957 23.0141C13.5458 22.7655 13.8093 22.4136 13.9495 22.0078Z" fill="black" fill-opacity="0.84"/>
<rect x="12" width="14" height="14" rx="7" fill="white"/>
<rect x="12" width="14" height="14" rx="7" fill="#EA7E7E"/>
<path d="M16.9765 6.054V5.244C17.4445 5.25 17.8405 5.172 18.1645 5.01C18.5245 4.824 18.7405 4.554 18.8125 4.2H19.6495V10.5H18.5245V6.054H16.9765Z" fill="white"/>
</svg>
