<svg width="110" height="26" viewBox="0 0 110 26" fill="none" xmlns="http://www.w3.org/2000/svg">
<path d="M0 19.8031V0.808291H2.05147V17.8093H10.9741V19.8031H0ZM18 20.342C13.9959 20.342 11.3512 17.4321 11.3512 13.0135C11.3512 8.56788 13.9959 5.65803 18 5.65803C22.0288 5.65803 24.6734 8.56788 24.6734 13.0135C24.6734 17.4321 22.0288 20.342 18 20.342ZM18 18.4829C20.8918 18.4829 22.7703 16.3275 22.7703 13.0135C22.7703 9.69948 20.8918 7.54404 18 7.54404C15.1081 7.54404 13.2297 9.69948 13.2297 13.0135C13.2297 16.3275 15.1081 18.4829 18 18.4829ZM33.3397 5.65803C36.2069 5.65803 37.9617 7.65181 37.9617 11.0197V19.8031H36.0586V11.2352C36.0586 8.91813 34.798 7.43627 32.8207 7.43627C30.3243 7.43627 28.52 9.34922 28.52 12.1244V19.8031H26.6416V6.19689H28.347L28.52 8.21762H28.5448C29.6076 6.57409 31.1647 5.65803 33.3397 5.65803ZM45.7163 26C42.775 26 40.0315 24.5451 38.8202 22.3627L40.2787 21.0155C41.2673 22.9016 43.393 24.1409 45.6669 24.1409C48.7564 24.1409 50.8079 22.0124 50.8079 18.7254V17.2166H50.7832C49.7945 18.914 47.8172 19.9648 46.0623 19.9648C42.3796 19.9648 39.8338 17.0819 39.8338 12.9057C39.8338 8.62176 42.3796 5.71192 46.0623 5.71192C47.8666 5.71192 49.7945 6.81658 50.8079 8.40622H50.8326L51.0303 6.19689H52.7111V18.7254C52.7111 23.144 49.9181 26 45.7163 26ZM46.3095 18.1057C49.0036 18.1057 50.882 15.8694 50.882 12.9057C50.882 9.86114 49.0036 7.54404 46.3095 7.54404C43.5907 7.54404 41.7122 9.72643 41.7122 12.9057C41.7122 15.9772 43.5907 18.1057 46.3095 18.1057ZM60.3376 20.342C57.2233 20.342 54.6528 18.5907 54.4303 15.6808L56.2841 15.2767C56.4324 17.1627 58.1131 18.4829 60.3376 18.4829C62.2902 18.4829 63.7979 17.486 63.7979 16.085C63.7979 15.0342 62.8834 14.3876 60.7825 13.9295L58.8052 13.4984C56.2099 12.9057 55.0977 11.7741 55.0977 9.78031C55.1224 7.40933 57.0503 5.65803 59.7197 5.65803C62.3396 5.65803 64.2922 7.19378 64.7618 9.40311L62.9575 9.94197C62.7845 8.51399 61.4745 7.46321 59.695 7.46321C58.1131 7.46321 56.9514 8.51399 56.9267 9.67254C56.9267 10.6694 57.6682 11.2352 59.3984 11.6394L61.4251 12.0705C64.3664 12.744 65.6269 13.8756 65.6269 15.8964C65.6269 18.456 63.353 20.342 60.3376 20.342ZM68.4981 3.55648C67.6577 3.55648 67.114 2.96373 67.114 2.04767C67.114 1.15855 67.6577 0.565801 68.4981 0.565801C69.3137 0.565801 69.9069 1.15855 69.9069 2.04767C69.9069 2.96373 69.3137 3.55648 68.4981 3.55648ZM67.5341 19.8031V6.19689H69.4126V19.8031H67.5341ZM77.553 26C74.6118 26 71.8682 24.5451 70.6571 22.3627L72.1154 21.0155C73.1041 22.9016 75.2297 24.1409 77.5036 24.1409C80.5932 24.1409 82.6446 22.0124 82.6446 18.7254V17.2166H82.6199C81.6312 18.914 79.6539 19.9648 77.8991 19.9648C74.2163 19.9648 71.6705 17.0819 71.6705 12.9057C71.6705 8.62176 74.2163 5.71192 77.8991 5.71192C79.7034 5.71192 81.6312 6.81658 82.6446 8.40622H82.6693L82.8671 6.19689H84.5478V18.7254C84.5478 23.144 81.7548 26 77.553 26ZM78.1462 18.1057C80.8403 18.1057 82.7188 15.8694 82.7188 12.9057C82.7188 9.86114 80.8403 7.54404 78.1462 7.54404C75.4274 7.54404 73.549 9.72643 73.549 12.9057C73.549 15.9772 75.4274 18.1057 78.1462 18.1057ZM87.0088 19.8031V0H88.8872V8.21762H88.912C89.9748 6.57409 91.5319 5.65803 93.7069 5.65803C96.5741 5.65803 98.3289 7.65181 98.3289 11.0197V19.8031H96.4258V11.2352C96.4258 8.91813 95.1652 7.43627 93.1879 7.43627C90.6915 7.43627 88.8872 9.34922 88.8872 12.1244V19.8031H87.0088ZM105.625 20.342C103.277 20.342 101.695 18.6176 101.695 16.1389V7.8943H98.9517V6.19689H101.695V2.15544L103.574 1.67047V6.19689H109.16V7.8943H103.574V15.9233C103.574 17.4591 104.439 18.5637 105.798 18.5637C107.059 18.5637 108.22 17.5668 108.468 15.8155L110 16.5161C109.654 18.887 107.751 20.342 105.625 20.342Z" fill="white"/>
</svg>
